#!OML:ASF F:\VICON\USERDATA\INSTALL\rory3\rory3.ASF
:FULLY-SPECIFIED
:DEGREES
1589
root -0.526858 17.5452 2.53224 3.78201 21.659 -9.02055
lowerback 9.67416 2.55826 -2.59291
upperback 2.31429 2.95466 -6.8621
thorax -2.77114 1.50344 -6.08265
lowerneck -27.6687 -12.2388 -14.8183
upperneck 16.3872 -15.2401 16.4935
head 12.5165 -5.87708 5.60043
rclavicle -1.19271e-014 -6.36111e-015
rhumerus 35.1665 18.3243 -0.671802
rradius 77.305
rwrist 42.3257
rhand -66.4607 -5.36404
rfingers 7.12502
rthumb -38.278 -31.0871
lclavicle -1.19271e-014 -6.36111e-015
lhumerus -34.3608 8.30253 61.7496
lradius 54.9298
lwrist -2.67948
lhand -22.3986 23.343
lfingers 7.12502
lthumb 4.02387 53.2848
rfemur -13.6921 -10.7629 24.4435
rtibia 31.2707
rfoot -23.8627 -14.1578
rtoes -0.352662
lfemur -26.7692 -7.33607 -0.640152
ltibia 35.0368
lfoot -14.623 -7.17063
ltoes -23.7927
1590
root -0.531617 17.5501 2.53611 3.81357 21.6879 -8.95024
lowerback 9.72137 2.4781 -2.56064
upperback 2.22771 2.84056 -6.89889
thorax -2.8941 1.44463 -6.13391
lowerneck -27.5051 -12.2122 -14.8999
upperneck 16.3888 -15.1924 16.4881
head 12.4856 -5.87104 5.62597
rclavicle 1.01778e-013 -4.13472e-014
rhumerus 34.584 15.2526 -2.05026
rradius 76.4193
rwrist 39.5271
rhand -65.5509 -1.79345
rfingers 7.12502
rthumb -37.4186 -27.7485
lclavicle 1.01778e-013 -4.13472e-014
lhumerus -34.51 8.45492 61.4482
lradius 54.7152
lwrist -2.79861
lhand -21.9261 22.2623
lfingers 7.12502
lthumb 4.48017 52.1949
rfemur -13.6512 -10.7106 24.4014
rtibia 31.2224
rfoot -23.8723 -14.245
rtoes -0.784445
lfemur -26.6449 -7.42346 -0.683923
ltibia 34.799
lfoot -14.6059 -7.09377
ltoes -23.9334
1591
root -0.538794 17.5575 2.54093 3.89165 21.6933 -8.79435
lowerback 9.76058 2.37735 -2.5948
upperback 2.15959 2.69358 -6.9711
thorax -2.99777 1.37031 -6.1801
lowerneck -27.4384 -12.2088 -14.984
upperneck 16.4024 -15.1652 16.4851
head 12.4806 -5.86842 5.64641
rclavicle -3.26007e-014 -1.27222e-014
rhumerus 34.3845 12.0544 -3.21689
rradius 75.1542
rwrist 36.8819
rhand -64.5509 -3.06045
rfingers 7.12502
rthumb -36.4727 -29.2594
lclavicle -3.26007e-014 -1.27222e-014
lhumerus -34.6242 8.72509 61.1494
lradius 54.7374
lwrist -3.0627
lhand -19.3316 21.7259
lfingers 7.12502
lthumb 6.98509 51.5907
rfemur -13.6366 -10.591 24.2835
rtibia 31.1672
rfoot -23.83 -14.3039
rtoes -0.71326
lfemur -26.5505 -7.46898 -0.813726
ltibia 34.5677
lfoot -14.578 -7.05222
ltoes -24.3705
1592
root -0.546696 17.5649 2.54332 4.01152 21.6729 -8.62145
lowerback 9.78998 2.27897 -2.62486
upperback 2.09373 2.5503 -7.06396
thorax -3.09239 1.29799 -6.25046
lowerneck -27.4702 -12.2143 -15.0556
upperneck 16.4752 -15.1609 16.5175
head 12.5238 -5.86432 5.67327
rclavicle 3.02153e-014 -1.90833e-014
rhumerus 34.3062 8.72782 -4.35511
rradius 73.5494
rwrist 34.7292
rhand -63.3334 -5.55574
rfingers 7.12502
rthumb -35.3192 -32.0367
lclavicle 3.02153e-014 -1.90833e-014
lhumerus -34.7575 8.8477 60.8871
lradius 54.8144
lwrist -2.81318
lhand -18.4994 21.4652
lfingers 7.12502
lthumb 7.78837 51.3018
rfemur -13.6641 -10.4547 24.1537
rtibia 31.095
rfoot -23.7936 -14.4279
rtoes -0.520921
lfemur -26.4778 -7.51434 -0.956825
ltibia 34.3333
lfoot -14.4824 -6.93977
ltoes -24.6137
1593
root -0.555018 17.57 2.54348 4.13762 21.6151 -8.63636
lowerback 9.79128 2.22188 -2.50293
upperback 1.94233 2.47336 -7.10373
thorax -3.25156 1.25556 -6.36008
lowerneck -27.4043 -12.223 -15.2136
upperneck 16.5898 -15.1724 16.6338
head 12.5863 -5.86751 5.74684
rclavicle 1.66979e-014 3.49861e-014
rhumerus 34.2201 5.46805 -5.37338
rradius 71.7784
rwrist 32.5993
rhand -62.6124 -5.96471
rfingers 7.12502
rthumb -34.6352 -32.6052
lclavicle 1.66979e-014 3.49861e-014
lhumerus -34.9528 8.7308 60.6481
lradius 54.8797
lwrist -2.58
lhand -19.6753 22.199
lfingers 7.12502
lthumb 6.65323 52.0744
rfemur -13.771 -10.2847 24.2288
rtibia 31.0017
rfoot -23.7602 -14.5456
rtoes -0.476961
lfemur -26.4711 -7.38273 -0.90094
ltibia 34.108
lfoot -14.3985 -6.97139
ltoes -24.5872
1594
root -0.562902 17.5775 2.54742 4.2516 21.5238 -8.5856
lowerback 9.76301 2.22101 -2.4312
upperback 1.86191 2.47292 -7.18184
thorax -3.31359 1.25336 -6.48725
lowerneck -27.4074 -12.2918 -15.2504
upperneck 16.6178 -15.2712 16.669
head 12.6231 -5.90851 5.74357
rclavicle -1.98785e-014 -8.26944e-014
rhumerus 34.287 2.10694 -6.53257
rradius 69.7917
rwrist 30.5929
rhand -62.4173 -5.8445
rfingers 7.12502
rthumb -34.4499 -32.5272
lclavicle -1.98785e-014 -8.26944e-014
lhumerus -34.8827 8.70557 60.4533
lradius 54.832
lwrist -2.39739
lhand -20.6809 22.641
lfingers 7.12502
lthumb 5.68246 52.5448
rfemur -13.8245 -10.1006 24.2281
rtibia 30.9153
rfoot -23.704 -14.65
rtoes -0.681511
lfemur -26.4013 -7.27443 -0.920246
ltibia 33.888
lfoot -14.3184 -6.94349
ltoes -24.4387
1595
root -0.573277 17.5843 2.55164 4.28632 21.4535 -8.57469
lowerback 9.8065 2.20369 -2.32172
upperback 1.82836 2.45335 -7.25753
thorax -3.36668 1.24179 -6.63357
lowerneck -27.3859 -12.3009 -15.1238
upperneck 16.487 -15.3058 16.6283
head 12.5587 -5.92407 5.6951
rclavicle -9.54166e-015 9.54166e-015
rhumerus 34.5825 -1.27465 -7.88835
rradius 67.5575
rwrist 29.2879
rhand -62.5251 -5.25202
rfingers 7.12502
rthumb -34.5523 -31.9115
lclavicle -9.54166e-015 9.54166e-015
lhumerus -34.6737 8.88161 60.2785
lradius 54.7929
lwrist -2.35644
lhand -19.6249 22.1783
lfingers 7.12502
lthumb 6.70196 52.0523
rfemur -13.8188 -9.90386 24.2676
rtibia 30.8347
rfoot -23.7302 -14.7868
rtoes -0.618107
lfemur -26.2896 -7.25182 -0.884269
ltibia 33.6788
lfoot -14.2679 -6.87018
ltoes -24.3251
1596
root -0.585096 17.5887 2.55265 4.38057 21.4594 -8.48432
lowerback 9.83758 2.13222 -2.2622
upperback 1.80453 2.35799 -7.35304
thorax -3.41159 1.19319 -6.76251
lowerneck -27.3713 -12.2845 -15.0748
upperneck 16.3337 -15.3155 16.7533
head 12.5097 -5.91469 5.73049
rclavicle 9.54166e-015 -3.18055e-014
rhumerus 35.1721 -4.67593 -9.27277
rradius 65.1241
rwrist 28.5118
rhand -62.4485 -5.98578
rfingers 7.12502
rthumb -34.4796 -32.6618
lclavicle 9.54166e-015 -3.18055e-014
lhumerus -34.5249 9.05786 60.0554
lradius 54.8402
lwrist -2.28633
lhand -19.5662 22.4567
lfingers 7.12502
lthumb 6.75862 52.3288
rfemur -13.8638 -9.80062 24.2314
rtibia 30.7647
rfoot -23.7399 -14.8861
rtoes -0.524972
lfemur -26.2435 -7.38583 -0.89997
ltibia 33.455
lfoot -14.1914 -6.69457
ltoes -24.4904
1597
root -0.599796 17.5941 2.55262 4.51703 21.5251 -8.41092
lowerback 9.84702 2.04651 -2.18013
upperback 1.761 2.24661 -7.42591
thorax -3.46739 1.13588 -6.87752
lowerneck -27.4183 -12.3669 -15.1258
upperneck 16.3413 -15.4191 16.7924
head 12.5487 -5.95642 5.72824
rclavicle -4.92986e-014 3.18055e-015
rhumerus 35.9759 -7.99162 -10.5413
rradius 62.568
rwrist 27.5979
rhand -61.9088 -8.66131
rfingers 7.12502
rthumb -33.9671 -35.4524
lclavicle -4.92986e-014 3.18055e-015
lhumerus -34.5089 9.20378 59.8105
lradius 54.9336
lwrist -2.25581
lhand -21.5146 23.1382
lfingers 7.12502
lthumb 4.8775 53.0621
rfemur -13.9719 -9.73147 24.238
rtibia 30.6958
rfoot -23.7573 -15.0345
rtoes -0.557051
lfemur -26.2823 -7.50316 -0.884198
ltibia 33.2367
lfoot -14.0626 -6.59876
ltoes -24.5378
